<svg width="1000" height="1000" viewBox="0 0 1000 1000" xmlns="http://www.w3.org/2000/svg"><path d="M855.737 562.863h143.264c-11.408 77.227-72.651 123.85-142.41 123.85-.287 0-.567-.014-.854-.014-71.187-.308-114.747-38.407-120.51-123.836h120.51zM491.491 770.546c71.25 0 139.027-33.115 182.685-108.229 48.347 74.814 110.954 107.95 181.825 108.215v228.47h-730v-1000L491 272 856.001-.998v485.92l-612.316-.147c-.454 7.01-.747 13.705-.747 20.98v7.614c0 154.322 106.111 257.177 248.553 257.177zm-.132-83.835c-69.753 0-127.815-46.619-139.23-123.85h260.637c-5.793 85.78-49.681 123.85-121.407 123.85z" fill-rule="evenodd"/></svg>